<?xml version="1.0" standalone="no"?>
<!DOCTYPE svg PUBLIC "-//W3C//DTD SVG 20010904//EN"
 "http://www.w3.org/TR/2001/REC-SVG-20010904/DTD/svg10.dtd">
<svg version="1.0" xmlns="http://www.w3.org/2000/svg"
 width="456.000000pt" height="456.000000pt" viewBox="0 0 456.000000 456.000000"
 preserveAspectRatio="xMidYMid meet">
<metadata>
Created by potrace 1.11, written by Peter Selinger 2001-2013
</metadata>
<g transform="translate(0.000000,456.000000) scale(0.100000,-0.100000)"
fill="#000000" stroke="none">
<path d="M4047 4554 c-1 -1 -31 -4 -67 -8 -111 -11 -154 -16 -176 -21 -11 -2
-45 -7 -75 -11 -161 -18 -579 -201 -884 -387 -225 -137 -464 -310 -655 -473
-223 -190 -509 -490 -692 -724 l-66 -85 -148 2 c-191 2 -305 -17 -517 -88 -32
-11 -66 -23 -75 -28 -9 -5 -65 -32 -124 -60 -59 -28 -153 -82 -210 -119 -103
-69 -291 -214 -317 -245 -12 -15 -11 -17 9 -14 20 3 81 -4 135 -17 108 -24
286 -112 450 -221 180 -121 219 -155 245 -219 l23 -57 -32 -60 -32 -61 19 -39
20 -39 -22 -15 c-140 -99 -311 -374 -381 -613 -6 -20 -4 -22 12 -14 10 5 61
31 113 58 232 116 396 235 465 335 l27 38 46 -31 c42 -29 47 -30 79 -18 34 12
36 11 74 -25 37 -37 38 -39 23 -67 -13 -25 -13 -32 5 -70 l19 -42 -78 -76
c-77 -75 -161 -193 -214 -298 -36 -70 -92 -211 -101 -250 l-7 -32 127 65 c108
56 278 157 295 175 3 3 21 17 40 31 61 46 150 142 150 161 0 14 19 9 59 -16
l38 -24 63 34 62 35 68 -41 c56 -34 81 -58 136 -133 184 -248 300 -481 323
-649 4 -31 6 -63 5 -71 -4 -28 20 -7 91 80 326 399 479 779 470 1171 l-3 122
122 94 c337 260 647 568 875 870 76 100 231 330 231 342 0 4 6 15 14 23 20 23
158 291 200 388 73 172 132 344 173 508 16 62 16 66 28 180 4 39 9 79 11 90 9
46 18 258 17 372 -2 162 -19 221 -70 250 -54 30 -127 41 -279 40 -74 0 -135
-2 -137 -3z"/>
</g>
</svg>
